# xmcd
#
# Track frame offsets:
# 150
# 21096
# 43912
# 72014
# 90623
# 106804
# 127004
# 146499
# 164466
# 181118
# 202084
# 217289
# 237555
# 254522
# 270791
# 291022
#
# Disc length: 4174 seconds
#
#
# Revision: 1
# Processed by: cddbd v1.4PL0 Copyright (c) Steve Scherf et al.
# Submitted via: FreeRIP 2.40 
#
DISCID=f1104c10
DTITLE=김조한 - 김조한
DYEAR=2002
DGENRE=Ballad
TTITLE0=하나뿐인 사랑
TTITLE1=너만을 위한 사랑
TTITLE2=늪
TTITLE3=친구에 친구를 사랑했네
TTITLE4=그대안의 블루
TTITLE5=내사랑 내곁에
TTITLE6=첫사랑
TTITLE7=사랑했던 이유로
TTITLE8=애송이의 사랑
TTITLE9=널 위해 준비된 사랑
TTITLE10=아름다운 상상
TTITLE11=그녀의 속눈썹은 길다
TTITLE12=HUSH
TTITLE13=끝없는 사랑
TTITLE14=착한 사람을 떠나보내며
TTITLE15=사랑 그대로의 사랑
EXTD=
EXTT0=
EXTT1=
EXTT2=
EXTT3=
EXTT4=
EXTT5=
EXTT6=
EXTT7=
EXTT8=
EXTT9=
EXTT10=
EXTT11=
EXTT12=
EXTT13=
EXTT14=
EXTT15=
PLAYORDER=
